<mxfile host="app.diagrams.net" modified="2023-02-27T23:52:47.334Z" agent="5.0 (Macintosh; Intel Mac OS X 10_15_7) AppleWebKit/605.1.15 (KHTML, like Gecko) Version/15.1 Safari/605.1.15" etag="didhlBMU9CyhFRYeBEr7" version="20.8.23" type="github">
  <diagram id="C5RBs43oDa-KdzZeNtuy" name="Page-1">
    <mxGraphModel dx="2385" dy="1618" grid="1" gridSize="10" guides="1" tooltips="1" connect="1" arrows="1" fold="1" page="1" pageScale="1" pageWidth="827" pageHeight="1169" math="0" shadow="0">
      <root>
        <mxCell id="WIyWlLk6GJQsqaUBKTNV-0" />
        <mxCell id="WIyWlLk6GJQsqaUBKTNV-1" parent="WIyWlLk6GJQsqaUBKTNV-0" />
        <mxCell id="zkfFHV4jXpPFQw0GAbJ--0" value="RunProject2" style="swimlane;fontStyle=2;align=center;verticalAlign=top;childLayout=stackLayout;horizontal=1;startSize=26;horizontalStack=0;resizeParent=1;resizeLast=0;collapsible=1;marginBottom=0;rounded=0;shadow=0;strokeWidth=1;" parent="WIyWlLk6GJQsqaUBKTNV-1" vertex="1">
          <mxGeometry x="10" y="80" width="160" height="60" as="geometry">
            <mxRectangle x="230" y="140" width="160" height="26" as="alternateBounds" />
          </mxGeometry>
        </mxCell>
        <mxCell id="zkfFHV4jXpPFQw0GAbJ--1" value="+main()" style="text;align=left;verticalAlign=top;spacingLeft=4;spacingRight=4;overflow=hidden;rotatable=0;points=[[0,0.5],[1,0.5]];portConstraint=eastwest;" parent="zkfFHV4jXpPFQw0GAbJ--0" vertex="1">
          <mxGeometry y="26" width="160" height="26" as="geometry" />
        </mxCell>
        <mxCell id="zkfFHV4jXpPFQw0GAbJ--6" value="Roster" style="swimlane;fontStyle=0;align=center;verticalAlign=top;childLayout=stackLayout;horizontal=1;startSize=26;horizontalStack=0;resizeParent=1;resizeLast=0;collapsible=1;marginBottom=0;rounded=0;shadow=0;strokeWidth=1;" parent="WIyWlLk6GJQsqaUBKTNV-1" vertex="1">
          <mxGeometry x="70" y="210" width="210" height="408" as="geometry">
            <mxRectangle x="130" y="380" width="160" height="26" as="alternateBounds" />
          </mxGeometry>
        </mxCell>
        <mxCell id="zkfFHV4jXpPFQw0GAbJ--7" value="-roster:Â Student[]" style="text;align=left;verticalAlign=top;spacingLeft=4;spacingRight=4;overflow=hidden;rotatable=0;points=[[0,0.5],[1,0.5]];portConstraint=eastwest;" parent="zkfFHV4jXpPFQw0GAbJ--6" vertex="1">
          <mxGeometry y="26" width="210" height="26" as="geometry" />
        </mxCell>
        <mxCell id="zkfFHV4jXpPFQw0GAbJ--8" value="-size: int&#xa;" style="text;align=left;verticalAlign=top;spacingLeft=4;spacingRight=4;overflow=hidden;rotatable=0;points=[[0,0.5],[1,0.5]];portConstraint=eastwest;rounded=0;shadow=0;html=0;" parent="zkfFHV4jXpPFQw0GAbJ--6" vertex="1">
          <mxGeometry y="52" width="210" height="26" as="geometry" />
        </mxCell>
        <mxCell id="zkfFHV4jXpPFQw0GAbJ--9" value="" style="line;html=1;strokeWidth=1;align=left;verticalAlign=middle;spacingTop=-1;spacingLeft=3;spacingRight=3;rotatable=0;labelPosition=right;points=[];portConstraint=eastwest;" parent="zkfFHV4jXpPFQw0GAbJ--6" vertex="1">
          <mxGeometry y="78" width="210" height="8" as="geometry" />
        </mxCell>
        <mxCell id="zkfFHV4jXpPFQw0GAbJ--10" value="+Roster()" style="text;align=left;verticalAlign=top;spacingLeft=4;spacingRight=4;overflow=hidden;rotatable=0;points=[[0,0.5],[1,0.5]];portConstraint=eastwest;fontStyle=4" parent="zkfFHV4jXpPFQw0GAbJ--6" vertex="1">
          <mxGeometry y="86" width="210" height="26" as="geometry" />
        </mxCell>
        <mxCell id="zkfFHV4jXpPFQw0GAbJ--11" value="+getStudent(Profile profile)): Student" style="text;align=left;verticalAlign=top;spacingLeft=4;spacingRight=4;overflow=hidden;rotatable=0;points=[[0,0.5],[1,0.5]];portConstraint=eastwest;" parent="zkfFHV4jXpPFQw0GAbJ--6" vertex="1">
          <mxGeometry y="112" width="210" height="26" as="geometry" />
        </mxCell>
        <mxCell id="5VePyKdH8K8Hi_omqHVl-10" value="+isEmpty() : boolean" style="text;html=1;strokeColor=none;fillColor=none;align=left;verticalAlign=middle;whiteSpace=wrap;rounded=0;" vertex="1" parent="zkfFHV4jXpPFQw0GAbJ--6">
          <mxGeometry y="138" width="210" height="30" as="geometry" />
        </mxCell>
        <mxCell id="5VePyKdH8K8Hi_omqHVl-11" value="+add(Student student) : boolean" style="text;html=1;strokeColor=none;fillColor=none;align=left;verticalAlign=middle;whiteSpace=wrap;rounded=0;" vertex="1" parent="zkfFHV4jXpPFQw0GAbJ--6">
          <mxGeometry y="168" width="210" height="30" as="geometry" />
        </mxCell>
        <mxCell id="5VePyKdH8K8Hi_omqHVl-12" value="+remove (Student student) : boolean" style="text;html=1;strokeColor=none;fillColor=none;align=left;verticalAlign=middle;whiteSpace=wrap;rounded=0;" vertex="1" parent="zkfFHV4jXpPFQw0GAbJ--6">
          <mxGeometry y="198" width="210" height="30" as="geometry" />
        </mxCell>
        <mxCell id="5VePyKdH8K8Hi_omqHVl-13" value="+printRoster() : void" style="text;html=1;strokeColor=none;fillColor=none;align=left;verticalAlign=middle;whiteSpace=wrap;rounded=0;" vertex="1" parent="zkfFHV4jXpPFQw0GAbJ--6">
          <mxGeometry y="228" width="210" height="30" as="geometry" />
        </mxCell>
        <mxCell id="5VePyKdH8K8Hi_omqHVl-14" value="+print() : void" style="text;html=1;strokeColor=none;fillColor=none;align=left;verticalAlign=middle;whiteSpace=wrap;rounded=0;" vertex="1" parent="zkfFHV4jXpPFQw0GAbJ--6">
          <mxGeometry y="258" width="210" height="30" as="geometry" />
        </mxCell>
        <mxCell id="5VePyKdH8K8Hi_omqHVl-15" value="+printByStanding() : void" style="text;html=1;strokeColor=none;fillColor=none;align=left;verticalAlign=middle;whiteSpace=wrap;rounded=0;" vertex="1" parent="zkfFHV4jXpPFQw0GAbJ--6">
          <mxGeometry y="288" width="210" height="30" as="geometry" />
        </mxCell>
        <mxCell id="5VePyKdH8K8Hi_omqHVl-16" value="list(String school) : void" style="text;html=1;strokeColor=none;fillColor=none;align=left;verticalAlign=middle;whiteSpace=wrap;rounded=0;" vertex="1" parent="zkfFHV4jXpPFQw0GAbJ--6">
          <mxGeometry y="318" width="210" height="30" as="geometry" />
        </mxCell>
        <mxCell id="5VePyKdH8K8Hi_omqHVl-17" value="+replaceMajor(Student student,String major) : boolean)" style="text;html=1;strokeColor=none;fillColor=none;align=left;verticalAlign=middle;whiteSpace=wrap;rounded=0;" vertex="1" parent="zkfFHV4jXpPFQw0GAbJ--6">
          <mxGeometry y="348" width="210" height="30" as="geometry" />
        </mxCell>
        <mxCell id="5VePyKdH8K8Hi_omqHVl-18" value="+replaceScholar(Resident resident,String scholarship) : boolean)" style="text;html=1;strokeColor=none;fillColor=none;align=left;verticalAlign=middle;whiteSpace=wrap;rounded=0;" vertex="1" parent="zkfFHV4jXpPFQw0GAbJ--6">
          <mxGeometry y="378" width="210" height="30" as="geometry" />
        </mxCell>
        <mxCell id="zkfFHV4jXpPFQw0GAbJ--13" value="Enrollment" style="swimlane;fontStyle=0;align=center;verticalAlign=top;childLayout=stackLayout;horizontal=1;startSize=26;horizontalStack=0;resizeParent=1;resizeLast=0;collapsible=1;marginBottom=0;rounded=0;shadow=0;strokeWidth=1;" parent="WIyWlLk6GJQsqaUBKTNV-1" vertex="1">
          <mxGeometry x="520" y="250" width="250" height="452" as="geometry">
            <mxRectangle x="340" y="380" width="170" height="26" as="alternateBounds" />
          </mxGeometry>
        </mxCell>
        <mxCell id="zkfFHV4jXpPFQw0GAbJ--14" value="-enrollment : EnrollStudent[]" style="text;align=left;verticalAlign=top;spacingLeft=4;spacingRight=4;overflow=hidden;rotatable=0;points=[[0,0.5],[1,0.5]];portConstraint=eastwest;" parent="zkfFHV4jXpPFQw0GAbJ--13" vertex="1">
          <mxGeometry y="26" width="250" height="26" as="geometry" />
        </mxCell>
        <mxCell id="5VePyKdH8K8Hi_omqHVl-19" value="-size : int" style="text;html=1;strokeColor=none;fillColor=none;align=left;verticalAlign=middle;whiteSpace=wrap;rounded=0;" vertex="1" parent="zkfFHV4jXpPFQw0GAbJ--13">
          <mxGeometry y="52" width="250" height="30" as="geometry" />
        </mxCell>
        <mxCell id="5VePyKdH8K8Hi_omqHVl-22" value="" style="line;strokeWidth=2;html=1;" vertex="1" parent="zkfFHV4jXpPFQw0GAbJ--13">
          <mxGeometry y="82" width="250" height="10" as="geometry" />
        </mxCell>
        <mxCell id="5VePyKdH8K8Hi_omqHVl-21" value="+Enrollment()" style="text;html=1;align=left;verticalAlign=middle;resizable=0;points=[];autosize=1;strokeColor=none;fillColor=none;" vertex="1" parent="zkfFHV4jXpPFQw0GAbJ--13">
          <mxGeometry y="92" width="250" height="30" as="geometry" />
        </mxCell>
        <mxCell id="5VePyKdH8K8Hi_omqHVl-23" value="+add(EnrollStudent enrollStudent) : void&lt;br&gt;" style="text;html=1;strokeColor=none;fillColor=none;align=left;verticalAlign=middle;whiteSpace=wrap;rounded=0;" vertex="1" parent="zkfFHV4jXpPFQw0GAbJ--13">
          <mxGeometry y="122" width="250" height="30" as="geometry" />
        </mxCell>
        <mxCell id="5VePyKdH8K8Hi_omqHVl-25" value="+remove(EnrollStudent enrollStudent) : void" style="text;html=1;strokeColor=none;fillColor=none;align=left;verticalAlign=middle;whiteSpace=wrap;rounded=0;" vertex="1" parent="zkfFHV4jXpPFQw0GAbJ--13">
          <mxGeometry y="152" width="250" height="30" as="geometry" />
        </mxCell>
        <mxCell id="5VePyKdH8K8Hi_omqHVl-26" value="+isAlreadyTaking(EnrollStudent student, int credits) : boolean)" style="text;html=1;strokeColor=none;fillColor=none;align=left;verticalAlign=middle;whiteSpace=wrap;rounded=0;" vertex="1" parent="zkfFHV4jXpPFQw0GAbJ--13">
          <mxGeometry y="182" width="250" height="30" as="geometry" />
        </mxCell>
        <mxCell id="5VePyKdH8K8Hi_omqHVl-27" value="+contains(Enrollstudent enrollStudent) : boolean" style="text;html=1;strokeColor=none;fillColor=none;align=left;verticalAlign=middle;whiteSpace=wrap;rounded=0;" vertex="1" parent="zkfFHV4jXpPFQw0GAbJ--13">
          <mxGeometry y="212" width="250" height="30" as="geometry" />
        </mxCell>
        <mxCell id="5VePyKdH8K8Hi_omqHVl-28" value="+find(EnrollStudent enrollStudent) : int" style="text;html=1;strokeColor=none;fillColor=none;align=left;verticalAlign=middle;whiteSpace=wrap;rounded=0;" vertex="1" parent="zkfFHV4jXpPFQw0GAbJ--13">
          <mxGeometry y="242" width="250" height="30" as="geometry" />
        </mxCell>
        <mxCell id="5VePyKdH8K8Hi_omqHVl-29" value="+getEnrollStudent(Profile profile) : EnrollStudent" style="text;html=1;strokeColor=none;fillColor=none;align=left;verticalAlign=middle;whiteSpace=wrap;rounded=0;" vertex="1" parent="zkfFHV4jXpPFQw0GAbJ--13">
          <mxGeometry y="272" width="250" height="30" as="geometry" />
        </mxCell>
        <mxCell id="5VePyKdH8K8Hi_omqHVl-30" value="+setEnrollCredits(EnrollStudent enrollStudent, int enrollCredits) : void" style="text;html=1;strokeColor=none;fillColor=none;align=center;verticalAlign=middle;whiteSpace=wrap;rounded=0;" vertex="1" parent="zkfFHV4jXpPFQw0GAbJ--13">
          <mxGeometry y="302" width="250" height="30" as="geometry" />
        </mxCell>
        <mxCell id="5VePyKdH8K8Hi_omqHVl-31" value="+isEmpty() : boolean" style="text;html=1;strokeColor=none;fillColor=none;align=left;verticalAlign=middle;whiteSpace=wrap;rounded=0;" vertex="1" parent="zkfFHV4jXpPFQw0GAbJ--13">
          <mxGeometry y="332" width="250" height="30" as="geometry" />
        </mxCell>
        <mxCell id="5VePyKdH8K8Hi_omqHVl-32" value="+print() : void" style="text;html=1;strokeColor=none;fillColor=none;align=left;verticalAlign=middle;whiteSpace=wrap;rounded=0;" vertex="1" parent="zkfFHV4jXpPFQw0GAbJ--13">
          <mxGeometry y="362" width="250" height="30" as="geometry" />
        </mxCell>
        <mxCell id="5VePyKdH8K8Hi_omqHVl-33" value="+printTuition(Roster roster) : void" style="text;html=1;strokeColor=none;fillColor=none;align=left;verticalAlign=middle;whiteSpace=wrap;rounded=0;" vertex="1" parent="zkfFHV4jXpPFQw0GAbJ--13">
          <mxGeometry y="392" width="250" height="30" as="geometry" />
        </mxCell>
        <mxCell id="5VePyKdH8K8Hi_omqHVl-34" value="+semesterEnd(Roster roster) : void" style="text;html=1;strokeColor=none;fillColor=none;align=left;verticalAlign=middle;whiteSpace=wrap;rounded=0;" vertex="1" parent="zkfFHV4jXpPFQw0GAbJ--13">
          <mxGeometry y="422" width="250" height="30" as="geometry" />
        </mxCell>
        <mxCell id="zkfFHV4jXpPFQw0GAbJ--17" value="TuitionManager&#xa;" style="swimlane;fontStyle=0;align=center;verticalAlign=top;childLayout=stackLayout;horizontal=1;startSize=26;horizontalStack=0;resizeParent=1;resizeLast=0;collapsible=1;marginBottom=0;rounded=0;shadow=0;strokeWidth=1;" parent="WIyWlLk6GJQsqaUBKTNV-1" vertex="1">
          <mxGeometry x="330" y="70" width="160" height="120" as="geometry">
            <mxRectangle x="550" y="140" width="160" height="26" as="alternateBounds" />
          </mxGeometry>
        </mxCell>
        <mxCell id="zkfFHV4jXpPFQw0GAbJ--18" value="-roster:Â Roster" style="text;align=left;verticalAlign=top;spacingLeft=4;spacingRight=4;overflow=hidden;rotatable=0;points=[[0,0.5],[1,0.5]];portConstraint=eastwest;" parent="zkfFHV4jXpPFQw0GAbJ--17" vertex="1">
          <mxGeometry y="26" width="160" height="26" as="geometry" />
        </mxCell>
        <mxCell id="zkfFHV4jXpPFQw0GAbJ--19" value="-enrollment:Â Enrollment&#xa;" style="text;align=left;verticalAlign=top;spacingLeft=4;spacingRight=4;overflow=hidden;rotatable=0;points=[[0,0.5],[1,0.5]];portConstraint=eastwest;rounded=0;shadow=0;html=0;" parent="zkfFHV4jXpPFQw0GAbJ--17" vertex="1">
          <mxGeometry y="52" width="160" height="26" as="geometry" />
        </mxCell>
        <mxCell id="zkfFHV4jXpPFQw0GAbJ--23" value="" style="line;html=1;strokeWidth=1;align=left;verticalAlign=middle;spacingTop=-1;spacingLeft=3;spacingRight=3;rotatable=0;labelPosition=right;points=[];portConstraint=eastwest;" parent="zkfFHV4jXpPFQw0GAbJ--17" vertex="1">
          <mxGeometry y="78" width="160" height="8" as="geometry" />
        </mxCell>
        <mxCell id="5VePyKdH8K8Hi_omqHVl-4" value="+TuitionManager()&lt;br&gt;+run()" style="text;html=1;strokeColor=none;fillColor=none;align=left;verticalAlign=middle;whiteSpace=wrap;rounded=0;" vertex="1" parent="zkfFHV4jXpPFQw0GAbJ--17">
          <mxGeometry y="86" width="160" height="34" as="geometry" />
        </mxCell>
        <mxCell id="zkfFHV4jXpPFQw0GAbJ--26" value="" style="endArrow=open;shadow=0;strokeWidth=1;rounded=0;endFill=1;edgeStyle=elbowEdgeStyle;elbow=vertical;" parent="WIyWlLk6GJQsqaUBKTNV-1" source="zkfFHV4jXpPFQw0GAbJ--0" target="zkfFHV4jXpPFQw0GAbJ--17" edge="1">
          <mxGeometry x="0.5" y="41" relative="1" as="geometry">
            <mxPoint x="380" y="192" as="sourcePoint" />
            <mxPoint x="540" y="192" as="targetPoint" />
            <mxPoint x="-40" y="32" as="offset" />
          </mxGeometry>
        </mxCell>
        <mxCell id="5VePyKdH8K8Hi_omqHVl-7" style="edgeStyle=orthogonalEdgeStyle;rounded=0;orthogonalLoop=1;jettySize=auto;html=1;entryX=0.5;entryY=0;entryDx=0;entryDy=0;" edge="1" parent="WIyWlLk6GJQsqaUBKTNV-1" source="5VePyKdH8K8Hi_omqHVl-4" target="zkfFHV4jXpPFQw0GAbJ--6">
          <mxGeometry relative="1" as="geometry" />
        </mxCell>
        <mxCell id="5VePyKdH8K8Hi_omqHVl-8" style="edgeStyle=orthogonalEdgeStyle;rounded=0;orthogonalLoop=1;jettySize=auto;html=1;entryX=0.6;entryY=-0.043;entryDx=0;entryDy=0;entryPerimeter=0;" edge="1" parent="WIyWlLk6GJQsqaUBKTNV-1" source="5VePyKdH8K8Hi_omqHVl-4" target="zkfFHV4jXpPFQw0GAbJ--13">
          <mxGeometry relative="1" as="geometry">
            <Array as="points">
              <mxPoint x="670" y="173" />
            </Array>
          </mxGeometry>
        </mxCell>
        <mxCell id="5VePyKdH8K8Hi_omqHVl-35" value="Constant" style="swimlane;fontStyle=0;childLayout=stackLayout;horizontal=1;startSize=30;horizontalStack=0;resizeParent=1;resizeParentMax=0;resizeLast=0;collapsible=1;marginBottom=0;whiteSpace=wrap;html=1;" vertex="1" parent="WIyWlLk6GJQsqaUBKTNV-1">
          <mxGeometry x="80" y="780" width="140" height="120" as="geometry" />
        </mxCell>
        <mxCell id="5VePyKdH8K8Hi_omqHVl-36" value="oh god&lt;br&gt;" style="text;strokeColor=none;fillColor=none;align=left;verticalAlign=middle;spacingLeft=4;spacingRight=4;overflow=hidden;points=[[0,0.5],[1,0.5]];portConstraint=eastwest;rotatable=0;whiteSpace=wrap;html=1;" vertex="1" parent="5VePyKdH8K8Hi_omqHVl-35">
          <mxGeometry y="30" width="140" height="30" as="geometry" />
        </mxCell>
        <mxCell id="5VePyKdH8K8Hi_omqHVl-37" value="oh god&lt;br&gt;" style="text;strokeColor=none;fillColor=none;align=left;verticalAlign=middle;spacingLeft=4;spacingRight=4;overflow=hidden;points=[[0,0.5],[1,0.5]];portConstraint=eastwest;rotatable=0;whiteSpace=wrap;html=1;" vertex="1" parent="5VePyKdH8K8Hi_omqHVl-35">
          <mxGeometry y="60" width="140" height="30" as="geometry" />
        </mxCell>
        <mxCell id="5VePyKdH8K8Hi_omqHVl-38" value="vvvvvvasdfasds" style="text;strokeColor=none;fillColor=none;align=left;verticalAlign=middle;spacingLeft=4;spacingRight=4;overflow=hidden;points=[[0,0.5],[1,0.5]];portConstraint=eastwest;rotatable=0;whiteSpace=wrap;html=1;" vertex="1" parent="5VePyKdH8K8Hi_omqHVl-35">
          <mxGeometry y="90" width="140" height="30" as="geometry" />
        </mxCell>
        <mxCell id="5VePyKdH8K8Hi_omqHVl-39" value="Date" style="swimlane;fontStyle=0;childLayout=stackLayout;horizontal=1;startSize=30;horizontalStack=0;resizeParent=1;resizeParentMax=0;resizeLast=0;collapsible=1;marginBottom=0;whiteSpace=wrap;html=1;" vertex="1" parent="WIyWlLk6GJQsqaUBKTNV-1">
          <mxGeometry x="290" y="702" width="140" height="460" as="geometry" />
        </mxCell>
        <mxCell id="5VePyKdH8K8Hi_omqHVl-40" value="-year : int" style="text;strokeColor=none;fillColor=none;align=left;verticalAlign=middle;spacingLeft=4;spacingRight=4;overflow=hidden;points=[[0,0.5],[1,0.5]];portConstraint=eastwest;rotatable=0;whiteSpace=wrap;html=1;" vertex="1" parent="5VePyKdH8K8Hi_omqHVl-39">
          <mxGeometry y="30" width="140" height="30" as="geometry" />
        </mxCell>
        <mxCell id="5VePyKdH8K8Hi_omqHVl-41" value="-month : int" style="text;strokeColor=none;fillColor=none;align=left;verticalAlign=middle;spacingLeft=4;spacingRight=4;overflow=hidden;points=[[0,0.5],[1,0.5]];portConstraint=eastwest;rotatable=0;whiteSpace=wrap;html=1;" vertex="1" parent="5VePyKdH8K8Hi_omqHVl-39">
          <mxGeometry y="60" width="140" height="30" as="geometry" />
        </mxCell>
        <mxCell id="5VePyKdH8K8Hi_omqHVl-42" value="-day : int" style="text;strokeColor=none;fillColor=none;align=left;verticalAlign=middle;spacingLeft=4;spacingRight=4;overflow=hidden;points=[[0,0.5],[1,0.5]];portConstraint=eastwest;rotatable=0;whiteSpace=wrap;html=1;" vertex="1" parent="5VePyKdH8K8Hi_omqHVl-39">
          <mxGeometry y="90" width="140" height="30" as="geometry" />
        </mxCell>
        <mxCell id="5VePyKdH8K8Hi_omqHVl-45" value="" style="line;strokeWidth=2;html=1;" vertex="1" parent="5VePyKdH8K8Hi_omqHVl-39">
          <mxGeometry y="120" width="140" height="10" as="geometry" />
        </mxCell>
        <mxCell id="5VePyKdH8K8Hi_omqHVl-43" value="+Date()" style="text;html=1;strokeColor=none;fillColor=none;align=left;verticalAlign=middle;whiteSpace=wrap;rounded=0;" vertex="1" parent="5VePyKdH8K8Hi_omqHVl-39">
          <mxGeometry y="130" width="140" height="30" as="geometry" />
        </mxCell>
        <mxCell id="5VePyKdH8K8Hi_omqHVl-47" value="+Date(String date)" style="text;html=1;strokeColor=none;fillColor=none;align=left;verticalAlign=middle;whiteSpace=wrap;rounded=0;" vertex="1" parent="5VePyKdH8K8Hi_omqHVl-39">
          <mxGeometry y="160" width="140" height="30" as="geometry" />
        </mxCell>
        <mxCell id="5VePyKdH8K8Hi_omqHVl-48" value="+Date(int month, int day, int year)" style="text;html=1;strokeColor=none;fillColor=none;align=center;verticalAlign=middle;whiteSpace=wrap;rounded=0;" vertex="1" parent="5VePyKdH8K8Hi_omqHVl-39">
          <mxGeometry y="190" width="140" height="30" as="geometry" />
        </mxCell>
        <mxCell id="5VePyKdH8K8Hi_omqHVl-49" value="+getYear() : int" style="text;html=1;strokeColor=none;fillColor=none;align=left;verticalAlign=middle;whiteSpace=wrap;rounded=0;" vertex="1" parent="5VePyKdH8K8Hi_omqHVl-39">
          <mxGeometry y="220" width="140" height="30" as="geometry" />
        </mxCell>
        <mxCell id="5VePyKdH8K8Hi_omqHVl-50" value="+getMonth() : int" style="text;html=1;strokeColor=none;fillColor=none;align=left;verticalAlign=middle;whiteSpace=wrap;rounded=0;" vertex="1" parent="5VePyKdH8K8Hi_omqHVl-39">
          <mxGeometry y="250" width="140" height="30" as="geometry" />
        </mxCell>
        <mxCell id="5VePyKdH8K8Hi_omqHVl-51" value="+getDay() : int" style="text;html=1;strokeColor=none;fillColor=none;align=left;verticalAlign=middle;whiteSpace=wrap;rounded=0;" vertex="1" parent="5VePyKdH8K8Hi_omqHVl-39">
          <mxGeometry y="280" width="140" height="30" as="geometry" />
        </mxCell>
        <mxCell id="5VePyKdH8K8Hi_omqHVl-52" value="+isValid() : boolean" style="text;html=1;strokeColor=none;fillColor=none;align=left;verticalAlign=middle;whiteSpace=wrap;rounded=0;" vertex="1" parent="5VePyKdH8K8Hi_omqHVl-39">
          <mxGeometry y="310" width="140" height="30" as="geometry" />
        </mxCell>
        <mxCell id="5VePyKdH8K8Hi_omqHVl-55" value="+isLeapYear() : boolean" style="text;html=1;strokeColor=none;fillColor=none;align=left;verticalAlign=middle;whiteSpace=wrap;rounded=0;" vertex="1" parent="5VePyKdH8K8Hi_omqHVl-39">
          <mxGeometry y="340" width="140" height="30" as="geometry" />
        </mxCell>
        <mxCell id="5VePyKdH8K8Hi_omqHVl-53" value="+toString() : String" style="text;html=1;strokeColor=none;fillColor=none;align=left;verticalAlign=middle;whiteSpace=wrap;rounded=0;" vertex="1" parent="5VePyKdH8K8Hi_omqHVl-39">
          <mxGeometry y="370" width="140" height="30" as="geometry" />
        </mxCell>
        <mxCell id="5VePyKdH8K8Hi_omqHVl-54" value="+equals(Date otherDate) : boolean" style="text;html=1;strokeColor=none;fillColor=none;align=left;verticalAlign=middle;whiteSpace=wrap;rounded=0;" vertex="1" parent="5VePyKdH8K8Hi_omqHVl-39">
          <mxGeometry y="400" width="140" height="30" as="geometry" />
        </mxCell>
        <mxCell id="5VePyKdH8K8Hi_omqHVl-56" value="+compareTo(Date otherDate) : int" style="text;html=1;strokeColor=none;fillColor=none;align=center;verticalAlign=middle;whiteSpace=wrap;rounded=0;" vertex="1" parent="5VePyKdH8K8Hi_omqHVl-39">
          <mxGeometry y="430" width="140" height="30" as="geometry" />
        </mxCell>
        <mxCell id="5VePyKdH8K8Hi_omqHVl-57" value="EnrollStudent&lt;br&gt;" style="swimlane;fontStyle=0;childLayout=stackLayout;horizontal=1;startSize=30;horizontalStack=0;resizeParent=1;resizeParentMax=0;resizeLast=0;collapsible=1;marginBottom=0;whiteSpace=wrap;html=1;" vertex="1" parent="WIyWlLk6GJQsqaUBKTNV-1">
          <mxGeometry x="450" y="732" width="200" height="280" as="geometry" />
        </mxCell>
        <mxCell id="5VePyKdH8K8Hi_omqHVl-58" value="-profile : Profile" style="text;strokeColor=none;fillColor=none;align=left;verticalAlign=middle;spacingLeft=4;spacingRight=4;overflow=hidden;points=[[0,0.5],[1,0.5]];portConstraint=eastwest;rotatable=0;whiteSpace=wrap;html=1;" vertex="1" parent="5VePyKdH8K8Hi_omqHVl-57">
          <mxGeometry y="30" width="200" height="30" as="geometry" />
        </mxCell>
        <mxCell id="5VePyKdH8K8Hi_omqHVl-59" value="-creditsErolled : int" style="text;strokeColor=none;fillColor=none;align=left;verticalAlign=middle;spacingLeft=4;spacingRight=4;overflow=hidden;points=[[0,0.5],[1,0.5]];portConstraint=eastwest;rotatable=0;whiteSpace=wrap;html=1;" vertex="1" parent="5VePyKdH8K8Hi_omqHVl-57">
          <mxGeometry y="60" width="200" height="30" as="geometry" />
        </mxCell>
        <mxCell id="5VePyKdH8K8Hi_omqHVl-61" value="" style="line;strokeWidth=2;html=1;" vertex="1" parent="5VePyKdH8K8Hi_omqHVl-57">
          <mxGeometry y="90" width="200" height="10" as="geometry" />
        </mxCell>
        <mxCell id="5VePyKdH8K8Hi_omqHVl-60" value="+EnrollStudent(Profile profile, int creditsEnrolled)" style="text;strokeColor=none;fillColor=none;align=left;verticalAlign=middle;spacingLeft=4;spacingRight=4;overflow=hidden;points=[[0,0.5],[1,0.5]];portConstraint=eastwest;rotatable=0;whiteSpace=wrap;html=1;" vertex="1" parent="5VePyKdH8K8Hi_omqHVl-57">
          <mxGeometry y="100" width="200" height="30" as="geometry" />
        </mxCell>
        <mxCell id="5VePyKdH8K8Hi_omqHVl-63" value="+equals(EnrollStudent otherEnroll) : boolean" style="text;strokeColor=none;fillColor=none;align=left;verticalAlign=middle;spacingLeft=4;spacingRight=4;overflow=hidden;points=[[0,0.5],[1,0.5]];portConstraint=eastwest;rotatable=0;whiteSpace=wrap;html=1;" vertex="1" parent="5VePyKdH8K8Hi_omqHVl-57">
          <mxGeometry y="130" width="200" height="30" as="geometry" />
        </mxCell>
        <mxCell id="5VePyKdH8K8Hi_omqHVl-64" value="+toString() : void" style="text;strokeColor=none;fillColor=none;align=left;verticalAlign=middle;spacingLeft=4;spacingRight=4;overflow=hidden;points=[[0,0.5],[1,0.5]];portConstraint=eastwest;rotatable=0;whiteSpace=wrap;html=1;" vertex="1" parent="5VePyKdH8K8Hi_omqHVl-57">
          <mxGeometry y="160" width="200" height="30" as="geometry" />
        </mxCell>
        <mxCell id="5VePyKdH8K8Hi_omqHVl-65" value="+getCreditsEnrolled() : int" style="text;strokeColor=none;fillColor=none;align=left;verticalAlign=middle;spacingLeft=4;spacingRight=4;overflow=hidden;points=[[0,0.5],[1,0.5]];portConstraint=eastwest;rotatable=0;whiteSpace=wrap;html=1;" vertex="1" parent="5VePyKdH8K8Hi_omqHVl-57">
          <mxGeometry y="190" width="200" height="30" as="geometry" />
        </mxCell>
        <mxCell id="5VePyKdH8K8Hi_omqHVl-66" value="+setCreditsEnrolled(int creditsEnrolled) : void" style="text;strokeColor=none;fillColor=none;align=left;verticalAlign=middle;spacingLeft=4;spacingRight=4;overflow=hidden;points=[[0,0.5],[1,0.5]];portConstraint=eastwest;rotatable=0;whiteSpace=wrap;html=1;" vertex="1" parent="5VePyKdH8K8Hi_omqHVl-57">
          <mxGeometry y="220" width="200" height="30" as="geometry" />
        </mxCell>
        <mxCell id="5VePyKdH8K8Hi_omqHVl-67" value="+getProfile() : Profile" style="text;strokeColor=none;fillColor=none;align=left;verticalAlign=middle;spacingLeft=4;spacingRight=4;overflow=hidden;points=[[0,0.5],[1,0.5]];portConstraint=eastwest;rotatable=0;whiteSpace=wrap;html=1;" vertex="1" parent="5VePyKdH8K8Hi_omqHVl-57">
          <mxGeometry y="250" width="200" height="30" as="geometry" />
        </mxCell>
        <mxCell id="5VePyKdH8K8Hi_omqHVl-68" value="International" style="swimlane;fontStyle=0;childLayout=stackLayout;horizontal=1;startSize=30;horizontalStack=0;resizeParent=1;resizeParentMax=0;resizeLast=0;collapsible=1;marginBottom=0;whiteSpace=wrap;html=1;" vertex="1" parent="WIyWlLk6GJQsqaUBKTNV-1">
          <mxGeometry x="710" y="732" width="260" height="280" as="geometry" />
        </mxCell>
        <mxCell id="5VePyKdH8K8Hi_omqHVl-69" value="-isStudyAbroad : boolean" style="text;strokeColor=none;fillColor=none;align=left;verticalAlign=middle;spacingLeft=4;spacingRight=4;overflow=hidden;points=[[0,0.5],[1,0.5]];portConstraint=eastwest;rotatable=0;whiteSpace=wrap;html=1;" vertex="1" parent="5VePyKdH8K8Hi_omqHVl-68">
          <mxGeometry y="30" width="260" height="30" as="geometry" />
        </mxCell>
        <mxCell id="5VePyKdH8K8Hi_omqHVl-72" value="" style="line;strokeWidth=4;html=1;perimeter=backbonePerimeter;points=[];outlineConnect=0;" vertex="1" parent="5VePyKdH8K8Hi_omqHVl-68">
          <mxGeometry y="60" width="260" height="10" as="geometry" />
        </mxCell>
        <mxCell id="5VePyKdH8K8Hi_omqHVl-70" value="+International(Profile profile, String major, int creditsCompleted, boolean isStudyAbroad)" style="text;strokeColor=none;fillColor=none;align=left;verticalAlign=middle;spacingLeft=4;spacingRight=4;overflow=hidden;points=[[0,0.5],[1,0.5]];portConstraint=eastwest;rotatable=0;whiteSpace=wrap;html=1;" vertex="1" parent="5VePyKdH8K8Hi_omqHVl-68">
          <mxGeometry y="70" width="260" height="30" as="geometry" />
        </mxCell>
        <mxCell id="5VePyKdH8K8Hi_omqHVl-71" value="+tuitionDue(int creditsEnrolled) : double" style="text;strokeColor=none;fillColor=none;align=left;verticalAlign=middle;spacingLeft=4;spacingRight=4;overflow=hidden;points=[[0,0.5],[1,0.5]];portConstraint=eastwest;rotatable=0;whiteSpace=wrap;html=1;" vertex="1" parent="5VePyKdH8K8Hi_omqHVl-68">
          <mxGeometry y="100" width="260" height="30" as="geometry" />
        </mxCell>
        <mxCell id="5VePyKdH8K8Hi_omqHVl-73" value="+isValid(int creditEnrolled) : boolean" style="text;strokeColor=none;fillColor=none;align=left;verticalAlign=middle;spacingLeft=4;spacingRight=4;overflow=hidden;points=[[0,0.5],[1,0.5]];portConstraint=eastwest;rotatable=0;whiteSpace=wrap;html=1;" vertex="1" parent="5VePyKdH8K8Hi_omqHVl-68">
          <mxGeometry y="130" width="260" height="30" as="geometry" />
        </mxCell>
        <mxCell id="5VePyKdH8K8Hi_omqHVl-74" value="+isResident() : boolean" style="text;strokeColor=none;fillColor=none;align=left;verticalAlign=middle;spacingLeft=4;spacingRight=4;overflow=hidden;points=[[0,0.5],[1,0.5]];portConstraint=eastwest;rotatable=0;whiteSpace=wrap;html=1;" vertex="1" parent="5VePyKdH8K8Hi_omqHVl-68">
          <mxGeometry y="160" width="260" height="30" as="geometry" />
        </mxCell>
        <mxCell id="5VePyKdH8K8Hi_omqHVl-75" value="+getType() : String" style="text;strokeColor=none;fillColor=none;align=left;verticalAlign=middle;spacingLeft=4;spacingRight=4;overflow=hidden;points=[[0,0.5],[1,0.5]];portConstraint=eastwest;rotatable=0;whiteSpace=wrap;html=1;" vertex="1" parent="5VePyKdH8K8Hi_omqHVl-68">
          <mxGeometry y="190" width="260" height="30" as="geometry" />
        </mxCell>
        <mxCell id="5VePyKdH8K8Hi_omqHVl-76" value="+getArea() : String" style="text;strokeColor=none;fillColor=none;align=left;verticalAlign=middle;spacingLeft=4;spacingRight=4;overflow=hidden;points=[[0,0.5],[1,0.5]];portConstraint=eastwest;rotatable=0;whiteSpace=wrap;html=1;" vertex="1" parent="5VePyKdH8K8Hi_omqHVl-68">
          <mxGeometry y="220" width="260" height="30" as="geometry" />
        </mxCell>
        <mxCell id="5VePyKdH8K8Hi_omqHVl-77" value="+isAbroad() : String" style="text;strokeColor=none;fillColor=none;align=left;verticalAlign=middle;spacingLeft=4;spacingRight=4;overflow=hidden;points=[[0,0.5],[1,0.5]];portConstraint=eastwest;rotatable=0;whiteSpace=wrap;html=1;" vertex="1" parent="5VePyKdH8K8Hi_omqHVl-68">
          <mxGeometry y="250" width="260" height="30" as="geometry" />
        </mxCell>
        <mxCell id="5VePyKdH8K8Hi_omqHVl-80" value="Major" style="swimlane;fontStyle=0;childLayout=stackLayout;horizontal=1;startSize=30;horizontalStack=0;resizeParent=1;resizeParentMax=0;resizeLast=0;collapsible=1;marginBottom=0;whiteSpace=wrap;html=1;" vertex="1" parent="WIyWlLk6GJQsqaUBKTNV-1">
          <mxGeometry x="1080" y="810" width="140" height="120" as="geometry" />
        </mxCell>
        <mxCell id="5VePyKdH8K8Hi_omqHVl-81" value="Item 1" style="text;strokeColor=none;fillColor=none;align=left;verticalAlign=middle;spacingLeft=4;spacingRight=4;overflow=hidden;points=[[0,0.5],[1,0.5]];portConstraint=eastwest;rotatable=0;whiteSpace=wrap;html=1;" vertex="1" parent="5VePyKdH8K8Hi_omqHVl-80">
          <mxGeometry y="30" width="140" height="30" as="geometry" />
        </mxCell>
        <mxCell id="5VePyKdH8K8Hi_omqHVl-82" value="Item 2" style="text;strokeColor=none;fillColor=none;align=left;verticalAlign=middle;spacingLeft=4;spacingRight=4;overflow=hidden;points=[[0,0.5],[1,0.5]];portConstraint=eastwest;rotatable=0;whiteSpace=wrap;html=1;" vertex="1" parent="5VePyKdH8K8Hi_omqHVl-80">
          <mxGeometry y="60" width="140" height="30" as="geometry" />
        </mxCell>
        <mxCell id="5VePyKdH8K8Hi_omqHVl-83" value="Item 3" style="text;strokeColor=none;fillColor=none;align=left;verticalAlign=middle;spacingLeft=4;spacingRight=4;overflow=hidden;points=[[0,0.5],[1,0.5]];portConstraint=eastwest;rotatable=0;whiteSpace=wrap;html=1;" vertex="1" parent="5VePyKdH8K8Hi_omqHVl-80">
          <mxGeometry y="90" width="140" height="30" as="geometry" />
        </mxCell>
        <mxCell id="5VePyKdH8K8Hi_omqHVl-84" value="NonResident" style="swimlane;fontStyle=0;childLayout=stackLayout;horizontal=1;startSize=30;horizontalStack=0;resizeParent=1;resizeParentMax=0;resizeLast=0;collapsible=1;marginBottom=0;whiteSpace=wrap;html=1;" vertex="1" parent="WIyWlLk6GJQsqaUBKTNV-1">
          <mxGeometry x="1050" y="480" width="260" height="210" as="geometry" />
        </mxCell>
        <mxCell id="5VePyKdH8K8Hi_omqHVl-87" value="+NonResident(Profile profile, String major, int creditsCompleted)" style="text;strokeColor=none;fillColor=none;align=left;verticalAlign=middle;spacingLeft=4;spacingRight=4;overflow=hidden;points=[[0,0.5],[1,0.5]];portConstraint=eastwest;rotatable=0;whiteSpace=wrap;html=1;" vertex="1" parent="5VePyKdH8K8Hi_omqHVl-84">
          <mxGeometry y="30" width="260" height="30" as="geometry" />
        </mxCell>
        <mxCell id="5VePyKdH8K8Hi_omqHVl-88" value="+tuitionDue(int creditsEnrolled) : double" style="text;strokeColor=none;fillColor=none;align=left;verticalAlign=middle;spacingLeft=4;spacingRight=4;overflow=hidden;points=[[0,0.5],[1,0.5]];portConstraint=eastwest;rotatable=0;whiteSpace=wrap;html=1;" vertex="1" parent="5VePyKdH8K8Hi_omqHVl-84">
          <mxGeometry y="60" width="260" height="30" as="geometry" />
        </mxCell>
        <mxCell id="5VePyKdH8K8Hi_omqHVl-89" value="+isValid(int creditEnrolled) : boolean" style="text;strokeColor=none;fillColor=none;align=left;verticalAlign=middle;spacingLeft=4;spacingRight=4;overflow=hidden;points=[[0,0.5],[1,0.5]];portConstraint=eastwest;rotatable=0;whiteSpace=wrap;html=1;" vertex="1" parent="5VePyKdH8K8Hi_omqHVl-84">
          <mxGeometry y="90" width="260" height="30" as="geometry" />
        </mxCell>
        <mxCell id="5VePyKdH8K8Hi_omqHVl-90" value="+isResident() : boolean" style="text;strokeColor=none;fillColor=none;align=left;verticalAlign=middle;spacingLeft=4;spacingRight=4;overflow=hidden;points=[[0,0.5],[1,0.5]];portConstraint=eastwest;rotatable=0;whiteSpace=wrap;html=1;" vertex="1" parent="5VePyKdH8K8Hi_omqHVl-84">
          <mxGeometry y="120" width="260" height="30" as="geometry" />
        </mxCell>
        <mxCell id="5VePyKdH8K8Hi_omqHVl-91" value="+getType() : String" style="text;strokeColor=none;fillColor=none;align=left;verticalAlign=middle;spacingLeft=4;spacingRight=4;overflow=hidden;points=[[0,0.5],[1,0.5]];portConstraint=eastwest;rotatable=0;whiteSpace=wrap;html=1;" vertex="1" parent="5VePyKdH8K8Hi_omqHVl-84">
          <mxGeometry y="150" width="260" height="30" as="geometry" />
        </mxCell>
        <mxCell id="5VePyKdH8K8Hi_omqHVl-92" value="+getArea() : String" style="text;strokeColor=none;fillColor=none;align=left;verticalAlign=middle;spacingLeft=4;spacingRight=4;overflow=hidden;points=[[0,0.5],[1,0.5]];portConstraint=eastwest;rotatable=0;whiteSpace=wrap;html=1;" vertex="1" parent="5VePyKdH8K8Hi_omqHVl-84">
          <mxGeometry y="180" width="260" height="30" as="geometry" />
        </mxCell>
        <mxCell id="5VePyKdH8K8Hi_omqHVl-94" value="Profile" style="swimlane;fontStyle=0;childLayout=stackLayout;horizontal=1;startSize=30;horizontalStack=0;resizeParent=1;resizeParentMax=0;resizeLast=0;collapsible=1;marginBottom=0;whiteSpace=wrap;html=1;" vertex="1" parent="WIyWlLk6GJQsqaUBKTNV-1">
          <mxGeometry x="880" y="70" width="260" height="340" as="geometry" />
        </mxCell>
        <mxCell id="5VePyKdH8K8Hi_omqHVl-95" value="-lname : String" style="text;strokeColor=none;fillColor=none;align=left;verticalAlign=middle;spacingLeft=4;spacingRight=4;overflow=hidden;points=[[0,0.5],[1,0.5]];portConstraint=eastwest;rotatable=0;whiteSpace=wrap;html=1;" vertex="1" parent="5VePyKdH8K8Hi_omqHVl-94">
          <mxGeometry y="30" width="260" height="30" as="geometry" />
        </mxCell>
        <mxCell id="5VePyKdH8K8Hi_omqHVl-99" value="-fname : String" style="text;strokeColor=none;fillColor=none;align=left;verticalAlign=middle;spacingLeft=4;spacingRight=4;overflow=hidden;points=[[0,0.5],[1,0.5]];portConstraint=eastwest;rotatable=0;whiteSpace=wrap;html=1;" vertex="1" parent="5VePyKdH8K8Hi_omqHVl-94">
          <mxGeometry y="60" width="260" height="30" as="geometry" />
        </mxCell>
        <mxCell id="5VePyKdH8K8Hi_omqHVl-100" value="-dob : Date" style="text;strokeColor=none;fillColor=none;align=left;verticalAlign=middle;spacingLeft=4;spacingRight=4;overflow=hidden;points=[[0,0.5],[1,0.5]];portConstraint=eastwest;rotatable=0;whiteSpace=wrap;html=1;" vertex="1" parent="5VePyKdH8K8Hi_omqHVl-94">
          <mxGeometry y="90" width="260" height="30" as="geometry" />
        </mxCell>
        <mxCell id="5VePyKdH8K8Hi_omqHVl-98" value="" style="line;strokeWidth=4;html=1;perimeter=backbonePerimeter;points=[];outlineConnect=0;" vertex="1" parent="5VePyKdH8K8Hi_omqHVl-94">
          <mxGeometry y="120" width="260" height="10" as="geometry" />
        </mxCell>
        <mxCell id="5VePyKdH8K8Hi_omqHVl-96" value="+Profile(String name, String frame, String dob)" style="text;strokeColor=none;fillColor=none;align=left;verticalAlign=middle;spacingLeft=4;spacingRight=4;overflow=hidden;points=[[0,0.5],[1,0.5]];portConstraint=eastwest;rotatable=0;whiteSpace=wrap;html=1;" vertex="1" parent="5VePyKdH8K8Hi_omqHVl-94">
          <mxGeometry y="130" width="260" height="30" as="geometry" />
        </mxCell>
        <mxCell id="5VePyKdH8K8Hi_omqHVl-97" value="+toString() : String" style="text;strokeColor=none;fillColor=none;align=left;verticalAlign=middle;spacingLeft=4;spacingRight=4;overflow=hidden;points=[[0,0.5],[1,0.5]];portConstraint=eastwest;rotatable=0;whiteSpace=wrap;html=1;" vertex="1" parent="5VePyKdH8K8Hi_omqHVl-94">
          <mxGeometry y="160" width="260" height="30" as="geometry" />
        </mxCell>
        <mxCell id="5VePyKdH8K8Hi_omqHVl-102" value="+equals(Object otherProfile) : boolean" style="text;strokeColor=none;fillColor=none;align=left;verticalAlign=middle;spacingLeft=4;spacingRight=4;overflow=hidden;points=[[0,0.5],[1,0.5]];portConstraint=eastwest;rotatable=0;whiteSpace=wrap;html=1;" vertex="1" parent="5VePyKdH8K8Hi_omqHVl-94">
          <mxGeometry y="190" width="260" height="30" as="geometry" />
        </mxCell>
        <mxCell id="5VePyKdH8K8Hi_omqHVl-103" value="+compareTo(Profile otherProfile) : int" style="text;strokeColor=none;fillColor=none;align=left;verticalAlign=middle;spacingLeft=4;spacingRight=4;overflow=hidden;points=[[0,0.5],[1,0.5]];portConstraint=eastwest;rotatable=0;whiteSpace=wrap;html=1;" vertex="1" parent="5VePyKdH8K8Hi_omqHVl-94">
          <mxGeometry y="220" width="260" height="30" as="geometry" />
        </mxCell>
        <mxCell id="5VePyKdH8K8Hi_omqHVl-104" value="+getLname() : String" style="text;strokeColor=none;fillColor=none;align=left;verticalAlign=middle;spacingLeft=4;spacingRight=4;overflow=hidden;points=[[0,0.5],[1,0.5]];portConstraint=eastwest;rotatable=0;whiteSpace=wrap;html=1;" vertex="1" parent="5VePyKdH8K8Hi_omqHVl-94">
          <mxGeometry y="250" width="260" height="30" as="geometry" />
        </mxCell>
        <mxCell id="5VePyKdH8K8Hi_omqHVl-105" value="+getFname() : String" style="text;strokeColor=none;fillColor=none;align=left;verticalAlign=middle;spacingLeft=4;spacingRight=4;overflow=hidden;points=[[0,0.5],[1,0.5]];portConstraint=eastwest;rotatable=0;whiteSpace=wrap;html=1;" vertex="1" parent="5VePyKdH8K8Hi_omqHVl-94">
          <mxGeometry y="280" width="260" height="30" as="geometry" />
        </mxCell>
        <mxCell id="5VePyKdH8K8Hi_omqHVl-106" value="+getDob() : Date" style="text;strokeColor=none;fillColor=none;align=left;verticalAlign=middle;spacingLeft=4;spacingRight=4;overflow=hidden;points=[[0,0.5],[1,0.5]];portConstraint=eastwest;rotatable=0;whiteSpace=wrap;html=1;" vertex="1" parent="5VePyKdH8K8Hi_omqHVl-94">
          <mxGeometry y="310" width="260" height="30" as="geometry" />
        </mxCell>
        <mxCell id="5VePyKdH8K8Hi_omqHVl-107" value="Resident" style="swimlane;fontStyle=0;childLayout=stackLayout;horizontal=1;startSize=30;horizontalStack=0;resizeParent=1;resizeParentMax=0;resizeLast=0;collapsible=1;marginBottom=0;whiteSpace=wrap;html=1;" vertex="1" parent="WIyWlLk6GJQsqaUBKTNV-1">
          <mxGeometry x="1170" y="80" width="260" height="340" as="geometry" />
        </mxCell>
        <mxCell id="5VePyKdH8K8Hi_omqHVl-114" value="-scholarShip : int" style="text;html=1;strokeColor=none;fillColor=none;align=center;verticalAlign=middle;whiteSpace=wrap;rounded=0;" vertex="1" parent="5VePyKdH8K8Hi_omqHVl-107">
          <mxGeometry y="30" width="260" height="30" as="geometry" />
        </mxCell>
        <mxCell id="5VePyKdH8K8Hi_omqHVl-115" value="" style="line;strokeWidth=4;html=1;perimeter=backbonePerimeter;points=[];outlineConnect=0;" vertex="1" parent="5VePyKdH8K8Hi_omqHVl-107">
          <mxGeometry y="60" width="260" height="10" as="geometry" />
        </mxCell>
        <mxCell id="5VePyKdH8K8Hi_omqHVl-108" value="+Resident(Profile profile, String major, int creditsCompleted)" style="text;strokeColor=none;fillColor=none;align=left;verticalAlign=middle;spacingLeft=4;spacingRight=4;overflow=hidden;points=[[0,0.5],[1,0.5]];portConstraint=eastwest;rotatable=0;whiteSpace=wrap;html=1;" vertex="1" parent="5VePyKdH8K8Hi_omqHVl-107">
          <mxGeometry y="70" width="260" height="30" as="geometry" />
        </mxCell>
        <mxCell id="5VePyKdH8K8Hi_omqHVl-109" value="+tuitionDue(int creditsEnrolled) : double" style="text;strokeColor=none;fillColor=none;align=left;verticalAlign=middle;spacingLeft=4;spacingRight=4;overflow=hidden;points=[[0,0.5],[1,0.5]];portConstraint=eastwest;rotatable=0;whiteSpace=wrap;html=1;" vertex="1" parent="5VePyKdH8K8Hi_omqHVl-107">
          <mxGeometry y="100" width="260" height="30" as="geometry" />
        </mxCell>
        <mxCell id="5VePyKdH8K8Hi_omqHVl-110" value="+isValid(int creditEnrolled) : boolean" style="text;strokeColor=none;fillColor=none;align=left;verticalAlign=middle;spacingLeft=4;spacingRight=4;overflow=hidden;points=[[0,0.5],[1,0.5]];portConstraint=eastwest;rotatable=0;whiteSpace=wrap;html=1;" vertex="1" parent="5VePyKdH8K8Hi_omqHVl-107">
          <mxGeometry y="130" width="260" height="30" as="geometry" />
        </mxCell>
        <mxCell id="5VePyKdH8K8Hi_omqHVl-111" value="+isResident() : boolean" style="text;strokeColor=none;fillColor=none;align=left;verticalAlign=middle;spacingLeft=4;spacingRight=4;overflow=hidden;points=[[0,0.5],[1,0.5]];portConstraint=eastwest;rotatable=0;whiteSpace=wrap;html=1;" vertex="1" parent="5VePyKdH8K8Hi_omqHVl-107">
          <mxGeometry y="160" width="260" height="30" as="geometry" />
        </mxCell>
        <mxCell id="5VePyKdH8K8Hi_omqHVl-112" value="+getType() : String" style="text;strokeColor=none;fillColor=none;align=left;verticalAlign=middle;spacingLeft=4;spacingRight=4;overflow=hidden;points=[[0,0.5],[1,0.5]];portConstraint=eastwest;rotatable=0;whiteSpace=wrap;html=1;" vertex="1" parent="5VePyKdH8K8Hi_omqHVl-107">
          <mxGeometry y="190" width="260" height="30" as="geometry" />
        </mxCell>
        <mxCell id="5VePyKdH8K8Hi_omqHVl-113" value="+getArea() : String" style="text;strokeColor=none;fillColor=none;align=left;verticalAlign=middle;spacingLeft=4;spacingRight=4;overflow=hidden;points=[[0,0.5],[1,0.5]];portConstraint=eastwest;rotatable=0;whiteSpace=wrap;html=1;" vertex="1" parent="5VePyKdH8K8Hi_omqHVl-107">
          <mxGeometry y="220" width="260" height="30" as="geometry" />
        </mxCell>
        <mxCell id="5VePyKdH8K8Hi_omqHVl-116" value="+setScholarShip(int scholarShip) : void&lt;span style=&quot;white-space: pre;&quot;&gt;	&lt;/span&gt;" style="text;strokeColor=none;fillColor=none;align=left;verticalAlign=middle;spacingLeft=4;spacingRight=4;overflow=hidden;points=[[0,0.5],[1,0.5]];portConstraint=eastwest;rotatable=0;whiteSpace=wrap;html=1;" vertex="1" parent="5VePyKdH8K8Hi_omqHVl-107">
          <mxGeometry y="250" width="260" height="30" as="geometry" />
        </mxCell>
        <mxCell id="5VePyKdH8K8Hi_omqHVl-117" value="+getScholarShip(int scholarship) : void" style="text;strokeColor=none;fillColor=none;align=left;verticalAlign=middle;spacingLeft=4;spacingRight=4;overflow=hidden;points=[[0,0.5],[1,0.5]];portConstraint=eastwest;rotatable=0;whiteSpace=wrap;html=1;" vertex="1" parent="5VePyKdH8K8Hi_omqHVl-107">
          <mxGeometry y="280" width="260" height="30" as="geometry" />
        </mxCell>
        <mxCell id="5VePyKdH8K8Hi_omqHVl-118" value="+isEligible() : boolean" style="text;strokeColor=none;fillColor=none;align=left;verticalAlign=middle;spacingLeft=4;spacingRight=4;overflow=hidden;points=[[0,0.5],[1,0.5]];portConstraint=eastwest;rotatable=0;whiteSpace=wrap;html=1;" vertex="1" parent="5VePyKdH8K8Hi_omqHVl-107">
          <mxGeometry y="310" width="260" height="30" as="geometry" />
        </mxCell>
        <mxCell id="5VePyKdH8K8Hi_omqHVl-119" value="SortType" style="swimlane;fontStyle=0;childLayout=stackLayout;horizontal=1;startSize=30;horizontalStack=0;resizeParent=1;resizeParentMax=0;resizeLast=0;collapsible=1;marginBottom=0;whiteSpace=wrap;html=1;" vertex="1" parent="WIyWlLk6GJQsqaUBKTNV-1">
          <mxGeometry x="850" y="500" width="140" height="120" as="geometry" />
        </mxCell>
        <mxCell id="5VePyKdH8K8Hi_omqHVl-120" value="Item 1" style="text;strokeColor=none;fillColor=none;align=left;verticalAlign=middle;spacingLeft=4;spacingRight=4;overflow=hidden;points=[[0,0.5],[1,0.5]];portConstraint=eastwest;rotatable=0;whiteSpace=wrap;html=1;" vertex="1" parent="5VePyKdH8K8Hi_omqHVl-119">
          <mxGeometry y="30" width="140" height="30" as="geometry" />
        </mxCell>
        <mxCell id="5VePyKdH8K8Hi_omqHVl-121" value="Item 2" style="text;strokeColor=none;fillColor=none;align=left;verticalAlign=middle;spacingLeft=4;spacingRight=4;overflow=hidden;points=[[0,0.5],[1,0.5]];portConstraint=eastwest;rotatable=0;whiteSpace=wrap;html=1;" vertex="1" parent="5VePyKdH8K8Hi_omqHVl-119">
          <mxGeometry y="60" width="140" height="30" as="geometry" />
        </mxCell>
        <mxCell id="5VePyKdH8K8Hi_omqHVl-122" value="Item 3" style="text;strokeColor=none;fillColor=none;align=left;verticalAlign=middle;spacingLeft=4;spacingRight=4;overflow=hidden;points=[[0,0.5],[1,0.5]];portConstraint=eastwest;rotatable=0;whiteSpace=wrap;html=1;" vertex="1" parent="5VePyKdH8K8Hi_omqHVl-119">
          <mxGeometry y="90" width="140" height="30" as="geometry" />
        </mxCell>
        <mxCell id="5VePyKdH8K8Hi_omqHVl-123" value="Standing" style="swimlane;fontStyle=0;childLayout=stackLayout;horizontal=1;startSize=30;horizontalStack=0;resizeParent=1;resizeParentMax=0;resizeLast=0;collapsible=1;marginBottom=0;whiteSpace=wrap;html=1;" vertex="1" parent="WIyWlLk6GJQsqaUBKTNV-1">
          <mxGeometry x="1330" y="780" width="140" height="120" as="geometry" />
        </mxCell>
        <mxCell id="5VePyKdH8K8Hi_omqHVl-124" value="Item 1" style="text;strokeColor=none;fillColor=none;align=left;verticalAlign=middle;spacingLeft=4;spacingRight=4;overflow=hidden;points=[[0,0.5],[1,0.5]];portConstraint=eastwest;rotatable=0;whiteSpace=wrap;html=1;" vertex="1" parent="5VePyKdH8K8Hi_omqHVl-123">
          <mxGeometry y="30" width="140" height="30" as="geometry" />
        </mxCell>
        <mxCell id="5VePyKdH8K8Hi_omqHVl-125" value="Item 2" style="text;strokeColor=none;fillColor=none;align=left;verticalAlign=middle;spacingLeft=4;spacingRight=4;overflow=hidden;points=[[0,0.5],[1,0.5]];portConstraint=eastwest;rotatable=0;whiteSpace=wrap;html=1;" vertex="1" parent="5VePyKdH8K8Hi_omqHVl-123">
          <mxGeometry y="60" width="140" height="30" as="geometry" />
        </mxCell>
        <mxCell id="5VePyKdH8K8Hi_omqHVl-126" value="Item 3" style="text;strokeColor=none;fillColor=none;align=left;verticalAlign=middle;spacingLeft=4;spacingRight=4;overflow=hidden;points=[[0,0.5],[1,0.5]];portConstraint=eastwest;rotatable=0;whiteSpace=wrap;html=1;" vertex="1" parent="5VePyKdH8K8Hi_omqHVl-123">
          <mxGeometry y="90" width="140" height="30" as="geometry" />
        </mxCell>
        <mxCell id="5VePyKdH8K8Hi_omqHVl-127" value="Student" style="swimlane;fontStyle=0;childLayout=stackLayout;horizontal=1;startSize=30;horizontalStack=0;resizeParent=1;resizeParentMax=0;resizeLast=0;collapsible=1;marginBottom=0;whiteSpace=wrap;html=1;" vertex="1" parent="WIyWlLk6GJQsqaUBKTNV-1">
          <mxGeometry x="1480" y="110" width="240" height="610" as="geometry" />
        </mxCell>
        <mxCell id="5VePyKdH8K8Hi_omqHVl-128" value="-profile : Profile" style="text;strokeColor=none;fillColor=none;align=left;verticalAlign=middle;spacingLeft=4;spacingRight=4;overflow=hidden;points=[[0,0.5],[1,0.5]];portConstraint=eastwest;rotatable=0;whiteSpace=wrap;html=1;" vertex="1" parent="5VePyKdH8K8Hi_omqHVl-127">
          <mxGeometry y="30" width="240" height="30" as="geometry" />
        </mxCell>
        <mxCell id="5VePyKdH8K8Hi_omqHVl-129" value="-major : Major" style="text;strokeColor=none;fillColor=none;align=left;verticalAlign=middle;spacingLeft=4;spacingRight=4;overflow=hidden;points=[[0,0.5],[1,0.5]];portConstraint=eastwest;rotatable=0;whiteSpace=wrap;html=1;" vertex="1" parent="5VePyKdH8K8Hi_omqHVl-127">
          <mxGeometry y="60" width="240" height="30" as="geometry" />
        </mxCell>
        <mxCell id="5VePyKdH8K8Hi_omqHVl-130" value="-creditCompleted : int" style="text;strokeColor=none;fillColor=none;align=left;verticalAlign=middle;spacingLeft=4;spacingRight=4;overflow=hidden;points=[[0,0.5],[1,0.5]];portConstraint=eastwest;rotatable=0;whiteSpace=wrap;html=1;" vertex="1" parent="5VePyKdH8K8Hi_omqHVl-127">
          <mxGeometry y="90" width="240" height="30" as="geometry" />
        </mxCell>
        <mxCell id="5VePyKdH8K8Hi_omqHVl-132" value="" style="line;strokeWidth=4;html=1;perimeter=backbonePerimeter;points=[];outlineConnect=0;" vertex="1" parent="5VePyKdH8K8Hi_omqHVl-127">
          <mxGeometry y="120" width="240" height="10" as="geometry" />
        </mxCell>
        <mxCell id="5VePyKdH8K8Hi_omqHVl-131" value="+Student(Profile profile, String major, int creditsCompleted)" style="text;html=1;strokeColor=none;fillColor=none;align=left;verticalAlign=middle;whiteSpace=wrap;rounded=0;" vertex="1" parent="5VePyKdH8K8Hi_omqHVl-127">
          <mxGeometry y="130" width="240" height="30" as="geometry" />
        </mxCell>
        <mxCell id="5VePyKdH8K8Hi_omqHVl-133" value="+setMajor(Major major) : void" style="text;html=1;strokeColor=none;fillColor=none;align=left;verticalAlign=middle;whiteSpace=wrap;rounded=0;" vertex="1" parent="5VePyKdH8K8Hi_omqHVl-127">
          <mxGeometry y="160" width="240" height="30" as="geometry" />
        </mxCell>
        <mxCell id="5VePyKdH8K8Hi_omqHVl-134" value="+getProfile() : Profile" style="text;html=1;strokeColor=none;fillColor=none;align=left;verticalAlign=middle;whiteSpace=wrap;rounded=0;" vertex="1" parent="5VePyKdH8K8Hi_omqHVl-127">
          <mxGeometry y="190" width="240" height="30" as="geometry" />
        </mxCell>
        <mxCell id="5VePyKdH8K8Hi_omqHVl-135" value="+getMajor : Major" style="text;html=1;strokeColor=none;fillColor=none;align=left;verticalAlign=middle;whiteSpace=wrap;rounded=0;" vertex="1" parent="5VePyKdH8K8Hi_omqHVl-127">
          <mxGeometry y="220" width="240" height="30" as="geometry" />
        </mxCell>
        <mxCell id="5VePyKdH8K8Hi_omqHVl-136" value="+getStanding() : String" style="text;html=1;strokeColor=none;fillColor=none;align=left;verticalAlign=middle;whiteSpace=wrap;rounded=0;" vertex="1" parent="5VePyKdH8K8Hi_omqHVl-127">
          <mxGeometry y="250" width="240" height="30" as="geometry" />
        </mxCell>
        <mxCell id="5VePyKdH8K8Hi_omqHVl-137" value="+getCredits() : int" style="text;html=1;strokeColor=none;fillColor=none;align=left;verticalAlign=middle;whiteSpace=wrap;rounded=0;" vertex="1" parent="5VePyKdH8K8Hi_omqHVl-127">
          <mxGeometry y="280" width="240" height="30" as="geometry" />
        </mxCell>
        <mxCell id="5VePyKdH8K8Hi_omqHVl-138" value="+addCredits(int additionalCredits) : void" style="text;html=1;strokeColor=none;fillColor=none;align=left;verticalAlign=middle;whiteSpace=wrap;rounded=0;" vertex="1" parent="5VePyKdH8K8Hi_omqHVl-127">
          <mxGeometry y="310" width="240" height="30" as="geometry" />
        </mxCell>
        <mxCell id="5VePyKdH8K8Hi_omqHVl-139" value="+isValid(int creditEnrolled) : boolean" style="text;html=1;strokeColor=none;fillColor=none;align=left;verticalAlign=middle;whiteSpace=wrap;rounded=0;" vertex="1" parent="5VePyKdH8K8Hi_omqHVl-127">
          <mxGeometry y="340" width="240" height="30" as="geometry" />
        </mxCell>
        <mxCell id="5VePyKdH8K8Hi_omqHVl-140" value="+tuitionDue(int creditEnrolled) : double" style="text;html=1;strokeColor=none;fillColor=none;align=left;verticalAlign=middle;whiteSpace=wrap;rounded=0;" vertex="1" parent="5VePyKdH8K8Hi_omqHVl-127">
          <mxGeometry y="370" width="240" height="30" as="geometry" />
        </mxCell>
        <mxCell id="5VePyKdH8K8Hi_omqHVl-141" value="+getArea() : String" style="text;html=1;strokeColor=none;fillColor=none;align=left;verticalAlign=middle;whiteSpace=wrap;rounded=0;" vertex="1" parent="5VePyKdH8K8Hi_omqHVl-127">
          <mxGeometry y="400" width="240" height="30" as="geometry" />
        </mxCell>
        <mxCell id="5VePyKdH8K8Hi_omqHVl-142" value="+isResident() : boolean" style="text;html=1;strokeColor=none;fillColor=none;align=left;verticalAlign=middle;whiteSpace=wrap;rounded=0;" vertex="1" parent="5VePyKdH8K8Hi_omqHVl-127">
          <mxGeometry y="430" width="240" height="30" as="geometry" />
        </mxCell>
        <mxCell id="5VePyKdH8K8Hi_omqHVl-143" value="+getType() : String" style="text;html=1;strokeColor=none;fillColor=none;align=left;verticalAlign=middle;whiteSpace=wrap;rounded=0;" vertex="1" parent="5VePyKdH8K8Hi_omqHVl-127">
          <mxGeometry y="460" width="240" height="30" as="geometry" />
        </mxCell>
        <mxCell id="5VePyKdH8K8Hi_omqHVl-144" value="+toString() : String" style="text;html=1;strokeColor=none;fillColor=none;align=left;verticalAlign=middle;whiteSpace=wrap;rounded=0;" vertex="1" parent="5VePyKdH8K8Hi_omqHVl-127">
          <mxGeometry y="490" width="240" height="30" as="geometry" />
        </mxCell>
        <mxCell id="5VePyKdH8K8Hi_omqHVl-145" value="+equals(Object otherStudent) : boolean" style="text;html=1;strokeColor=none;fillColor=none;align=left;verticalAlign=middle;whiteSpace=wrap;rounded=0;" vertex="1" parent="5VePyKdH8K8Hi_omqHVl-127">
          <mxGeometry y="520" width="240" height="30" as="geometry" />
        </mxCell>
        <mxCell id="5VePyKdH8K8Hi_omqHVl-146" value="+residency() : String" style="text;html=1;strokeColor=none;fillColor=none;align=left;verticalAlign=middle;whiteSpace=wrap;rounded=0;" vertex="1" parent="5VePyKdH8K8Hi_omqHVl-127">
          <mxGeometry y="550" width="240" height="30" as="geometry" />
        </mxCell>
        <mxCell id="5VePyKdH8K8Hi_omqHVl-147" value="+compareTo(Student student) : int" style="text;html=1;strokeColor=none;fillColor=none;align=left;verticalAlign=middle;whiteSpace=wrap;rounded=0;" vertex="1" parent="5VePyKdH8K8Hi_omqHVl-127">
          <mxGeometry y="580" width="240" height="30" as="geometry" />
        </mxCell>
        <mxCell id="5VePyKdH8K8Hi_omqHVl-148" value="TriState" style="swimlane;fontStyle=0;childLayout=stackLayout;horizontal=1;startSize=30;horizontalStack=0;resizeParent=1;resizeParentMax=0;resizeLast=0;collapsible=1;marginBottom=0;whiteSpace=wrap;html=1;" vertex="1" parent="WIyWlLk6GJQsqaUBKTNV-1">
          <mxGeometry x="1630" y="780" width="260" height="250" as="geometry" />
        </mxCell>
        <mxCell id="5VePyKdH8K8Hi_omqHVl-155" value="-state : String" style="text;html=1;strokeColor=none;fillColor=none;align=left;verticalAlign=middle;whiteSpace=wrap;rounded=0;" vertex="1" parent="5VePyKdH8K8Hi_omqHVl-148">
          <mxGeometry y="30" width="260" height="30" as="geometry" />
        </mxCell>
        <mxCell id="5VePyKdH8K8Hi_omqHVl-156" value="" style="line;strokeWidth=4;html=1;perimeter=backbonePerimeter;points=[];outlineConnect=0;" vertex="1" parent="5VePyKdH8K8Hi_omqHVl-148">
          <mxGeometry y="60" width="260" height="10" as="geometry" />
        </mxCell>
        <mxCell id="5VePyKdH8K8Hi_omqHVl-149" value="+TriState(Profile profile, String major, int creditsCompleted,String state)" style="text;strokeColor=none;fillColor=none;align=left;verticalAlign=middle;spacingLeft=4;spacingRight=4;overflow=hidden;points=[[0,0.5],[1,0.5]];portConstraint=eastwest;rotatable=0;whiteSpace=wrap;html=1;" vertex="1" parent="5VePyKdH8K8Hi_omqHVl-148">
          <mxGeometry y="70" width="260" height="30" as="geometry" />
        </mxCell>
        <mxCell id="5VePyKdH8K8Hi_omqHVl-150" value="+tuitionDue(int creditsEnrolled) : double" style="text;strokeColor=none;fillColor=none;align=left;verticalAlign=middle;spacingLeft=4;spacingRight=4;overflow=hidden;points=[[0,0.5],[1,0.5]];portConstraint=eastwest;rotatable=0;whiteSpace=wrap;html=1;" vertex="1" parent="5VePyKdH8K8Hi_omqHVl-148">
          <mxGeometry y="100" width="260" height="30" as="geometry" />
        </mxCell>
        <mxCell id="5VePyKdH8K8Hi_omqHVl-151" value="+isValid(int creditEnrolled) : boolean" style="text;strokeColor=none;fillColor=none;align=left;verticalAlign=middle;spacingLeft=4;spacingRight=4;overflow=hidden;points=[[0,0.5],[1,0.5]];portConstraint=eastwest;rotatable=0;whiteSpace=wrap;html=1;" vertex="1" parent="5VePyKdH8K8Hi_omqHVl-148">
          <mxGeometry y="130" width="260" height="30" as="geometry" />
        </mxCell>
        <mxCell id="5VePyKdH8K8Hi_omqHVl-152" value="+isResident() : boolean" style="text;strokeColor=none;fillColor=none;align=left;verticalAlign=middle;spacingLeft=4;spacingRight=4;overflow=hidden;points=[[0,0.5],[1,0.5]];portConstraint=eastwest;rotatable=0;whiteSpace=wrap;html=1;" vertex="1" parent="5VePyKdH8K8Hi_omqHVl-148">
          <mxGeometry y="160" width="260" height="30" as="geometry" />
        </mxCell>
        <mxCell id="5VePyKdH8K8Hi_omqHVl-153" value="+getType() : String" style="text;strokeColor=none;fillColor=none;align=left;verticalAlign=middle;spacingLeft=4;spacingRight=4;overflow=hidden;points=[[0,0.5],[1,0.5]];portConstraint=eastwest;rotatable=0;whiteSpace=wrap;html=1;" vertex="1" parent="5VePyKdH8K8Hi_omqHVl-148">
          <mxGeometry y="190" width="260" height="30" as="geometry" />
        </mxCell>
        <mxCell id="5VePyKdH8K8Hi_omqHVl-154" value="+getArea() : String" style="text;strokeColor=none;fillColor=none;align=left;verticalAlign=middle;spacingLeft=4;spacingRight=4;overflow=hidden;points=[[0,0.5],[1,0.5]];portConstraint=eastwest;rotatable=0;whiteSpace=wrap;html=1;" vertex="1" parent="5VePyKdH8K8Hi_omqHVl-148">
          <mxGeometry y="220" width="260" height="30" as="geometry" />
        </mxCell>
      </root>
    </mxGraphModel>
  </diagram>
</mxfile>
